# xmcd
#
# Track frame offsets: 
#        150
#        674
#        14961
#        33576
#        51502
#        68756
#        85615
#        101799
#        119651
#        136321
#        150050
#        165674
#        184814
#        208848
#        224077
#        236355
#        253680
#        267631
#        283233
#        298569
#        315560
#
# Disc length: 4423 seconds
#
# Revision: 0
# Processed by: cddbd v1.5.2PL0 Copyright (c) Steve Scherf et al.
# Submitted via: ExactAudioCopy v0.99pb4
#
DISCID=42114515
DTITLE=Various Artist - prevue promo 1068A-3
DYEAR=2001
DGENRE=pop
TTITLE0=blank - data
TTITLE1=Vibrolush - Just Like Heaven
TTITLE2=LFO - Every Other Time
TTITLE3=Mya - Where The Dream Takes You( Movie "Atlantis")
TTITLE4=Youngstown - Sugar
TTITLE5=Sarina Paris - Just About Enough
TTITLE6=Michelle Branch - Everywhere
TTITLE7=Unspun - When It All Comes Down
TTITLE8=Afrocelt Sound System feat.  Peter Gabriel - When You're Falli
TTITLE8=ng
TTITLE9=J.J. Cale - After Midnight(Live - Applause Tag)
TTITLE10=Jo Davidson - Kiss Me There
TTITLE11=Eric Clapton - Travelin' Light
TTITLE12=Widespread Panic - This Part Of Town
TTITLE13=Molly Hatchet - Why Won't You Take Me Home
TTITLE14=Sixty Watt Shaman - Roll The Stone
TTITLE15=Dog Fashion Disco - Headless(Lyric Content!!)
TTITLE16=Cold - End Of The World
TTITLE17=Insolence - Poison Well
TTITLE18=Pete - Sweet Daze
TTITLE19=Tantric - Astounded
TTITLE20=Simon Says - Blister
EXTD=
EXTT0=
EXTT1=
EXTT2=
EXTT3=
EXTT4=
EXTT5=
EXTT6=
EXTT7=
EXTT8=
EXTT9=
EXTT10=
EXTT11=
EXTT12=
EXTT13=
EXTT14=
EXTT15=
EXTT16=
EXTT17=
EXTT18=
EXTT19=
EXTT20=
PLAYORDER=
